<svg xmlns="http://www.w3.org/2000/svg" viewBox="0 0 797.47 285.34"><defs><style>.cls-1{fill:#f2f2f2;}.cls-2{fill:#384556;}.cls-3{fill:#10958e;}.cls-4{fill:#22c2b9;opacity:0.45;}.cls-5{opacity:0.8;}.cls-6{fill:none;stroke:#0e175b;stroke-miterlimit:10;}.cls-7{fill:#0ab6b1;}.cls-8{fill:#fff;}.cls-9{fill:#14a9a1;}.cls-10{fill:#4d4d4d;}</style></defs><g id="Layer_2" data-name="Layer 2"><g id="Layer_1-2" data-name="Layer 1"><polyline class="cls-1" points="123.56 5.39 6 74.8 123.56 146.42 241.11 74.8 123.56 6.93"/><polygon class="cls-2" points="123.56 279.94 4.67 211.31 4.67 74.03 123.56 146.42 123.56 279.94"/><polygon class="cls-3" points="123.56 279.94 242.44 211.31 242.44 74.05 123.56 146.42 123.56 279.94"/><polygon class="cls-2" points="230.84 75.52 228.56 76.85 227.94 77.22 227.31 77.58 225.35 78.73 224.73 79.09 224.1 79.46 222.14 80.61 221.52 80.97 220.89 81.34 218.93 82.49 218.31 82.85 217.83 83.13 217.68 83.22 215.72 84.36 215.1 84.73 214.47 85.09 212.51 86.24 211.89 86.61 211.26 86.97 209.3 88.12 208.68 88.49 208.05 88.85 204.88 90.71 124.82 44.03 124.19 43.66 123.56 43.3 123.41 43.21 110.29 50.91 56.24 82.6 41.95 90.98 41.78 90.89 41.16 90.52 39.22 89.36 37.98 88.63 36.03 87.47 35.41 87.11 34.79 86.74 32.84 85.58 32.22 85.21 31.6 84.85 29.66 83.69 29.44 83.56 29.03 83.32 28.41 82.95 26.47 81.8 25.85 81.43 25.23 81.06 23.28 79.91 22.04 79.17 20.09 78.02 18.85 77.28 16.91 76.13 16.82 76.07 106.98 23.79 123.97 13.94 124.07 13.99 124.7 14.36 126.67 15.5 127.3 15.86 127.93 16.22 129.91 17.36 130.53 17.72 131.16 18.09 133.14 19.22 133.77 19.59 134.4 19.95 136.38 21.09 137 21.45 137.63 21.81 139.61 22.95 140.24 23.31 140.87 23.68 142.84 24.82 143.47 25.18 144.1 25.54 146.08 26.68 146.71 27.04 147.34 27.41 149.31 28.54 149.94 28.91 150.57 29.27 230.84 75.52"/><polygon class="cls-4" points="230.84 75.52 228.56 76.85 227.94 77.22 227.31 77.58 225.35 78.73 224.73 79.09 224.1 79.46 222.14 80.61 221.52 80.97 220.89 81.34 218.93 82.49 218.31 82.85 217.83 83.13 125.67 29.39 124.8 28.89 123.94 28.39 123.73 28.26 105.65 38.87 31.21 82.52 29.44 83.56 29.03 83.32 28.41 82.95 26.47 81.8 25.85 81.43 25.23 81.06 23.28 79.91 22.04 79.17 20.09 78.02 18.85 77.28 16.91 76.13 16.82 76.07 106.98 23.79 123.97 13.94 124.07 13.99 124.7 14.36 126.67 15.5 127.3 15.86 127.93 16.22 129.91 17.36 130.53 17.72 131.16 18.09 133.14 19.22 133.77 19.59 134.4 19.95 136.38 21.09 137 21.45 137.63 21.81 139.61 22.95 140.24 23.31 140.87 23.68 142.84 24.82 143.47 25.18 144.1 25.54 146.08 26.68 146.71 27.04 147.34 27.41 149.31 28.54 149.94 28.91 150.57 29.27 230.84 75.52"/><path class="cls-2" d="M121.41,102.35v11H110.89S109.25,103.64,121.41,102.35Z"/><path class="cls-2" d="M125.74,102.35v11h10.52S137.9,103.64,125.74,102.35Z"/><rect class="cls-2" x="110.78" y="116.8" width="10.78" height="10.72"/><rect class="cls-2" x="125.45" y="116.8" width="10.78" height="10.72"/><g class="cls-5"><polygon class="cls-3" points="194.04 96.56 192.21 97.68 191.6 98.05 190.99 98.43 189.07 99.6 188.46 99.97 187.85 100.34 185.94 101.52 185.33 101.89 184.72 102.27 182.8 103.44 182.19 103.81 181.7 104.11 181.58 104.19 179.66 105.36 179.05 105.73 178.44 106.11 176.52 107.28 175.91 107.65 175.3 108.02 173.38 109.19 172.16 109.94 169.62 111.5 123.38 84.23 78.57 111.5 75.63 109.75 75.01 109.39 74.39 109.02 72.44 107.87 71.2 107.13 69.25 105.98 68.01 105.24 66.06 104.09 65.63 103.83 64.82 103.35 62.87 102.2 62.25 101.83 61.63 101.46 59.68 100.31 59.06 99.94 58.44 99.57 56.49 98.42 55.87 98.05 55.25 97.68 52.96 96.33 124.09 55.78 194.04 96.56"/><polygon class="cls-4" points="194.04 96.56 192.21 97.68 191.6 98.05 190.99 98.43 189.07 99.6 188.46 99.97 187.85 100.34 185.94 101.52 185.33 101.89 184.72 102.27 182.8 103.44 182.19 103.81 181.7 104.11 125.19 71.16 124.33 70.66 123.47 70.16 123.26 70.03 105.18 80.64 65.63 103.83 64.82 103.35 62.87 102.2 62.25 101.83 61.63 101.46 59.68 100.31 59.06 99.94 58.44 99.57 56.49 98.42 55.87 98.05 55.25 97.68 52.96 96.33 124.09 55.78 194.04 96.56"/></g><line class="cls-6" x1="105.01" y1="137.51" x2="105.01" y2="137.5"/><path class="cls-7" d="M123.55,279.94l-.33-.19L4.67,211.31V74L5,73.84,123.55,5.39,242.44,74V211.31l-.33.19ZM6,210.54l117.55,67.87,117.56-67.87V74.8L123.55,6.93,6,74.8Z"/><path class="cls-7" d="M123.55,285.34l-.34-.2L0,214V71.33l.35-.2L123.55,0,247.11,71.33V214l-.35.2ZM1.38,213.2l122.17,70.54L245.73,213.2V72.13L123.55,1.6,1.38,72.13Z"/><polygon class="cls-8" points="12.8 107.99 12.93 103.88 43.8 118.54 43.67 122.66 12.8 107.99"/><polygon class="cls-8" points="12.54 116.22 12.67 112.1 43.54 126.77 43.41 130.88 12.54 116.22"/><polygon class="cls-8" points="12.27 124.45 12.4 120.33 43.28 135 40.78 213.16 37.72 211.71 40.09 137.66 37.02 136.2 34.65 210.25 31.59 208.8 33.96 134.75 30.9 133.29 28.53 207.35 25.47 205.89 27.84 131.84 24.77 130.38 22.41 204.44 19.34 202.98 21.71 128.93 12.27 124.45"/><path class="cls-8" d="M83.76,158.4Q76.57,155,72.12,160t-4.86,17.67q-.41,12.63,3.6,21.69t11.19,12.49q7.19,3.41,11.64-1.64t4.87-17.67Q98.95,180,95,170.88T83.76,158.4Zm11.73,32.72q-.34,11-3.87,15.22t-9.44,1.43q-5.91-2.81-9.06-10.22t-2.8-18.39q.34-11,3.87-15.21t9.44-1.43q5.91,2.8,9.06,10.22T95.49,191.12Z"/><path class="cls-8" d="M98.49,154.09A38,38,0,0,0,84.29,142q-8-3.82-14.55-1.52T59.33,150.89q-3.91,8.15-4.32,21a79.68,79.68,0,0,0,2.86,24.42,61.15,61.15,0,0,0,9.45,19.89,38,38,0,0,0,14.2,12.14q8,3.82,14.55,1.52t10.41-10.46q3.92-8.15,4.32-21A79.61,79.61,0,0,0,107.94,174,61.15,61.15,0,0,0,98.49,154.09Zm9.25,42.85q-.57,17.72-7.82,25.12t-18.27,2.17Q70.64,219,64.07,205t-6-31.68q.57-17.72,7.82-25.12t18.27-2.17q11,5.24,17.58,19.2T107.74,196.94Z"/><path class="cls-8" d="M113.36,172.35a74.25,74.25,0,0,0-11.58-23.95,46.62,46.62,0,0,0-17.23-14.68q-9.69-4.6-17.64-1.88T54.17,144.23q-4.81,9.68-5.29,24.75a92.23,92.23,0,0,0,3.57,29A74,74,0,0,0,64,221.89a46.72,46.72,0,0,0,17.23,14.68q9.69,4.6,17.64,1.88t12.74-12.39q4.8-9.67,5.29-24.76A92.2,92.2,0,0,0,113.36,172.35Zm.5,27.5a63.38,63.38,0,0,1-3,18.23Q108.29,225.85,104,230a17.2,17.2,0,0,1-10.13,4.88,22.6,22.6,0,0,1-12.46-2.44,39.8,39.8,0,0,1-12.24-9.3A59.05,59.05,0,0,1,59.63,209a76.59,76.59,0,0,1-6-18.06A87.47,87.47,0,0,1,52,170.44a63.38,63.38,0,0,1,2.95-18.23q2.63-7.77,6.93-11.94A17.2,17.2,0,0,1,72,135.39a22.61,22.61,0,0,1,12.47,2.44,39.64,39.64,0,0,1,12.24,9.3,59.05,59.05,0,0,1,9.52,14.21,76.28,76.28,0,0,1,6,18.06A86.94,86.94,0,0,1,113.86,199.85Z"/><path class="cls-8" d="M84,150.17q-9.73-4.62-16.06,2T61.13,174.8q-.51,16,5.2,28.34t15.46,17q9.74,4.63,16.06-2t6.83-22.62q.51-16-5.2-28.35T84,150.17ZM101.62,194q-.47,14.34-5.85,20.17T81.92,216q-8.46-4-13.33-14.71t-4.4-25q.47-14.35,5.85-20.17t13.85-1.8q8.46,4,13.33,14.71T101.62,194Z"/><polygon class="cls-8" points="167.07 185.62 164.69 191.2 135.39 157.24 140.14 154.47 167.07 185.62"/><polygon class="cls-8" points="196.43 121.59 201.18 118.82 143.33 254.62 138.59 257.39 196.43 121.59"/><polygon class="cls-8" points="171.79 174.61 169.4 180.13 144.89 151.69 149.58 148.96 171.79 174.61"/><polygon class="cls-8" points="205.93 116.05 210.67 113.28 152.83 249.07 148.08 251.85 205.93 116.05"/><polygon class="cls-8" points="176.5 163.48 174.17 168.97 154.38 146.15 159.13 143.38 176.5 163.48"/><polygon class="cls-8" points="215.47 110.47 220.17 107.74 162.38 243.5 157.63 246.27 215.47 110.47"/><polygon class="cls-8" points="181.22 152.41 178.89 157.96 163.87 140.61 168.62 137.84 181.22 152.41"/><polygon class="cls-8" points="224.91 104.96 229.66 102.19 171.87 237.96 167.12 240.73 224.91 104.96"/><polygon class="cls-8" points="187.03 207.29 189.36 201.75 204.31 219.01 199.57 221.78 187.03 207.29"/><polygon class="cls-8" points="191.74 196.23 194.07 190.68 213.81 213.47 209.06 216.24 191.74 196.23"/><polygon class="cls-8" points="196.51 185.06 198.84 179.51 223.36 207.89 218.61 210.66 196.51 185.06"/><polygon class="cls-8" points="201.17 174.03 203.5 168.47 232.85 202.34 228.11 205.12 201.17 174.03"/><path class="cls-9" d="M312.49,60.37V169.88H285.16V111.17q0-12.72-.61-15.29A5.71,5.71,0,0,0,281.21,92q-2.74-1.32-12.21-1.32h-2.71V77.91q19.81-4.27,30.1-17.54Z"/><path class="cls-9" d="M387.57,97.44V134q0,12.45-1.35,18.13a25.15,25.15,0,0,1-5.62,10.62,24.14,24.14,0,0,1-10.28,7.1A39.63,39.63,0,0,1,356.86,172a50.08,50.08,0,0,1-16.3-2.27,22.36,22.36,0,0,1-10.35-7.07,30.38,30.38,0,0,1-5.48-10.11q-1.62-5.31-1.62-16.88V97.44q0-15.09,2.6-22.6a22.37,22.37,0,0,1,10.35-12q7.76-4.53,18.77-4.53a39.3,39.3,0,0,1,16.1,3.15q7.11,3.15,10.62,7.68a25.44,25.44,0,0,1,4.77,10.21Q387.56,85,387.57,97.44Zm-27.33-9.2q0-8.73-.84-10.93c-.57-1.46-1.88-2.19-4-2.19s-3.37.77-4,2.33-1,5.15-1,10.79v53.43q0,9.54.91,11.5c.61,1.31,1.93,2,4,2s3.36-.76,4-2.3.94-5,.94-10.35Z"/><path class="cls-2" d="M459.27,126.59H423.89V146c0,4.06.3,6.68.88,7.85a3.43,3.43,0,0,0,3.38,1.76c2.08,0,3.46-.78,4.16-2.34s1.05-4.56,1.05-9V132.41h25.91V139a59.34,59.34,0,0,1-1,12.79,26.14,26.14,0,0,1-4.9,9.54,23.85,23.85,0,0,1-9.78,7.6q-5.91,2.55-14.84,2.54a43.08,43.08,0,0,1-15.29-2.5A23.74,23.74,0,0,1,398,152.53q-1.42-5.25-1.42-15.25V111.1q0-11.77,3.18-18.57a21.78,21.78,0,0,1,10.41-10.41A36.64,36.64,0,0,1,426.8,78.5q11.51,0,19,4.36a24,24,0,0,1,10.49,11.57q3,7.2,3,20.25ZM431.87,112v-6.56c0-4.65-.24-7.65-.74-9a3,3,0,0,0-3-2c-1.9,0-3.07.58-3.52,1.73s-.68,4.25-.68,9.3V112Z"/><path class="cls-9" d="M526.74,60.37l-10,48.43,15.08,61.08H505.43A361.24,361.24,0,0,1,496.77,130q-1.06,10.42-3,22.05l-2.68,17.86H463.36l10.35-61.08L463.36,60.37h27.53q.75,4.53,3,15.08,1.78,8,2.91,14.82l6.09-29.9Z"/><path class="cls-2" d="M595.43,114H569.66V103.66c0-3.61-.3-6-.88-7.34a3.26,3.26,0,0,0-3.25-1.93,3.19,3.19,0,0,0-3.18,1.69q-.81,1.69-.81,7.58V146a16.6,16.6,0,0,0,1.22,7.21,3.85,3.85,0,0,0,3.58,2.4,3.71,3.71,0,0,0,3.76-2.51q1-2.49,1-9.47V133h24.35a142.85,142.85,0,0,1-.78,16.13,25.89,25.89,0,0,1-4.53,11,24.26,24.26,0,0,1-10,8.53q-6.15,2.87-15.22,2.87-11.56,0-18.33-4A21.73,21.73,0,0,1,537,156.45q-2.81-7.14-2.81-20.26v-25.5q0-11.43,2.3-17.24t9.81-10.39q7.51-4.56,18.26-4.56T582.85,83q7.57,4.53,10.08,11.43T595.43,114Z"/><path class="cls-2" d="M665.44,126.59H630.06V146q0,6.09.88,7.85a3.41,3.41,0,0,0,3.38,1.76q3.1,0,4.16-2.34t1-9V132.41h25.91V139a59.34,59.34,0,0,1-1.05,12.79,26.18,26.18,0,0,1-4.91,9.54,23.89,23.89,0,0,1-9.77,7.6q-5.93,2.55-14.85,2.54a43,43,0,0,1-15.28-2.5,24.51,24.51,0,0,1-10.32-6.87,24.85,24.85,0,0,1-5.11-9.6q-1.41-5.25-1.42-15.25V111.1q0-11.77,3.18-18.57a21.81,21.81,0,0,1,10.42-10.41A36.61,36.61,0,0,1,633,78.5q11.49,0,19,4.36a24,24,0,0,1,10.49,11.57q3,7.2,3,20.25ZM638,112v-6.56q0-7-.74-9a3,3,0,0,0-3-2c-1.89,0-3.06.58-3.51,1.73s-.68,4.25-.68,9.3V112Z"/><path class="cls-2" d="M730.17,108.8H706v-4.87c0-4.15-.24-6.77-.71-7.88s-1.66-1.66-3.55-1.66a4.07,4.07,0,0,0-3.45,1.52,7.53,7.53,0,0,0-1.15,4.57,23.21,23.21,0,0,0,.57,6q.58,1.93,3.45,4.23t11.81,6.7q11.9,5.82,15.62,11t3.72,14.94q0,11-2.84,16.54a18.84,18.84,0,0,1-9.5,8.59,38.8,38.8,0,0,1-16.07,3A44.32,44.32,0,0,1,686,168.26q-7.41-3.25-10.18-8.8t-2.77-16.77v-4.33h24.21V144q0,7.25.92,9.4a3.53,3.53,0,0,0,3.62,2.17c1.93,0,3.29-.49,4-1.46s1.15-3,1.15-6.12c0-4.28-.49-7-1.48-8.05s-6.34-4.28-15.9-9.6q-12-6.76-14.68-12.28A30,30,0,0,1,672.33,105q0-10.76,2.85-15.86t9.63-7.88a41.63,41.63,0,0,1,15.8-2.77,44.8,44.8,0,0,1,15.18,2.26,23.33,23.33,0,0,1,9.61,6,16.17,16.17,0,0,1,4.06,6.9,50.3,50.3,0,0,1,.71,9.94Z"/><path class="cls-2" d="M795.37,108.8H771.16v-4.87c0-4.15-.24-6.77-.71-7.88s-1.66-1.66-3.56-1.66a4,4,0,0,0-3.44,1.52,7.53,7.53,0,0,0-1.15,4.57,23.21,23.21,0,0,0,.57,6q.57,1.93,3.45,4.23t11.8,6.7q11.91,5.82,15.63,11t3.72,14.94q0,11-2.84,16.54a18.9,18.9,0,0,1-9.51,8.59,38.75,38.75,0,0,1-16.06,3q-10.42,0-17.82-3.24t-10.18-8.8q-2.77-5.53-2.78-16.77v-4.33H762.5V144q0,7.25.91,9.4a3.54,3.54,0,0,0,3.62,2.17c1.94,0,3.29-.49,4.06-1.46s1.15-3,1.15-6.12c0-4.28-.5-7-1.49-8.05s-6.34-4.28-15.9-9.6q-12-6.76-14.67-12.28A30,30,0,0,1,737.54,105q0-10.76,2.84-15.86T750,81.27a41.54,41.54,0,0,1,15.79-2.77A44.86,44.86,0,0,1,781,80.76a23.29,23.29,0,0,1,9.6,6,16.06,16.06,0,0,1,4.06,6.9,50.3,50.3,0,0,1,.71,9.94Z"/><path class="cls-10" d="M302.39,232.79l-6.86-11.57h-5.11v11.57h-2.77v-27.7H296q4.63,0,7,2.22a7.56,7.56,0,0,1,2.4,5.82,7.91,7.91,0,0,1-1.72,5.13,8.27,8.27,0,0,1-5.1,2.76l7.14,11.77Zm-12-13.83H296a6.77,6.77,0,0,0,4.89-1.59,5.6,5.6,0,0,0,1.65-4.24,5.5,5.5,0,0,0-1.59-4.22q-1.59-1.49-5-1.48h-5.55Z"/><path class="cls-10" d="M318.83,207.35v10.34h10.5V220h-10.5v10.5h11.69v2.3H316.06V205.05h14.46v2.3Z"/><path class="cls-10" d="M357.19,226.21h-12.6l-2.42,6.58h-2.93l10.11-27.35h3.13l10.06,27.35h-2.93Zm-.83-2.3-5.47-15-5.47,15Z"/><path class="cls-10" d="M374.91,230.53h9.94v2.26H372.13v-27.7h2.78Z"/><path class="cls-10" d="M412.75,207.35v10.34h10.5V220h-10.5v10.5h11.69v2.3H410V205.05h14.46v2.3Z"/><path class="cls-10" d="M438.65,232.11a7.85,7.85,0,0,1-3.27-2.65,6.92,6.92,0,0,1-1.27-3.81H437a5.6,5.6,0,0,0,1.78,3.55,6.44,6.44,0,0,0,4.64,1.53,6.54,6.54,0,0,0,4.46-1.45,4.66,4.66,0,0,0,1.64-3.67,4.31,4.31,0,0,0-.91-2.87,5.48,5.48,0,0,0-2.26-1.62,33.3,33.3,0,0,0-3.72-1.17,31.47,31.47,0,0,1-4.4-1.47,6.87,6.87,0,0,1-2.77-2.22,6.53,6.53,0,0,1-1.15-4.08,6.77,6.77,0,0,1,1.11-3.82,7.29,7.29,0,0,1,3.13-2.64,10.79,10.79,0,0,1,4.63-.95,9.65,9.65,0,0,1,6.2,1.88,7.06,7.06,0,0,1,2.72,4.86h-3a5,5,0,0,0-1.87-3,7.4,7.4,0,0,0-8.44,0,4.43,4.43,0,0,0-1.66,3.63,4.17,4.17,0,0,0,.91,2.81,5.79,5.79,0,0,0,2.28,1.63,35.28,35.28,0,0,0,3.71,1.19,34.81,34.81,0,0,1,4.35,1.48,7.19,7.19,0,0,1,2.82,2.24,6.58,6.58,0,0,1,1.15,4.05,7.18,7.18,0,0,1-1,3.68A7.57,7.57,0,0,1,448.3,232a10.14,10.14,0,0,1-4.84,1.07A11.35,11.35,0,0,1,438.65,232.11Z"/><path class="cls-10" d="M479.09,205.09v2.3H471.4v25.4h-2.78v-25.4H460.9v-2.3Z"/><path class="cls-10" d="M504.69,226.21H492.08l-2.41,6.58h-2.94l10.11-27.35H500L510,232.79H507.1Zm-.84-2.3-5.46-15-5.47,15Z"/><path class="cls-10" d="M535.83,205.09v2.3h-7.69v25.4h-2.77v-25.4h-7.73v-2.3Z"/><path class="cls-10" d="M548.16,207.35v10.34h10.5V220h-10.5v10.5h11.69v2.3H545.38V205.05h14.47v2.3Z"/><path class="cls-10" d="M587,211.61a12.93,12.93,0,0,1,4.88-5,13.42,13.42,0,0,1,6.89-1.8,14,14,0,0,1,8,2.2,12.46,12.46,0,0,1,4.81,6.2h-3.25a9.58,9.58,0,0,0-3.62-4.4,11.55,11.55,0,0,0-11.38-.16,9.88,9.88,0,0,0-3.82,4.11,14.48,14.48,0,0,0,0,12.38,9.92,9.92,0,0,0,3.82,4.08,11.55,11.55,0,0,0,11.38-.14,9.42,9.42,0,0,0,3.62-4.34h3.25a12.32,12.32,0,0,1-4.83,6.14,14.09,14.09,0,0,1-7.93,2.18,13.42,13.42,0,0,1-6.89-1.8,12.92,12.92,0,0,1-4.88-5,15.86,15.86,0,0,1,0-14.6Z"/><path class="cls-10" d="M636.92,232.79l-6.85-11.57H625v11.57h-2.78v-27.7h8.32q4.63,0,7,2.22a7.58,7.58,0,0,1,2.39,5.82,7.85,7.85,0,0,1-1.72,5.13,8.27,8.27,0,0,1-5.09,2.76l7.13,11.77ZM625,219h5.58a6.8,6.8,0,0,0,4.9-1.59,5.63,5.63,0,0,0,1.64-4.24,5.53,5.53,0,0,0-1.58-4.22q-1.59-1.49-5-1.48H625Z"/><path class="cls-10" d="M677.66,205.44v27.35h-2.77V211l-9.75,21.84h-2L653.37,211v21.76h-2.78V205.44h2.94l10.58,23.7,10.58-23.7Z"/></g></g></svg>